<svg xmlns="http://www.w3.org/2000/svg" viewBox="0 0 1440 890"><style type="text/css">  
	.st0{display:none;}
	.st1{display:inline;filter:url(#Adobe_OpacityMaskFilter);}
	.st2{fill-rule:evenodd;clip-rule:evenodd;fill:#FFFFFF;}
	.st3{display:inline;opacity:0.5;mask:url(#b_1_);}
	.st4{fill-rule:evenodd;clip-rule:evenodd;fill:#8E9CAA;}
	.st5{fill-rule:evenodd;clip-rule:evenodd;fill:#F1F1F3;}
	.st6{fill-rule:evenodd;clip-rule:evenodd;fill:#ABBCCC;}
	.st7{fill-rule:evenodd;clip-rule:evenodd;fill:#1793EF;}
	.st8{display:inline;filter:url(#Adobe_OpacityMaskFilter_1_);}
	
		.st9{display:inline;opacity:0.86;mask:url(#b_2_);fill-rule:evenodd;clip-rule:evenodd;fill:url(#SVGID_1_);enable-background:new    ;}
	.st10{display:inline;opacity:0.86;fill-rule:evenodd;clip-rule:evenodd;fill:#1793EF;enable-background:new    ;}
	.st11{fill:#37AADC;}
</style><g class="st0"><defs><filter filterUnits="userSpaceOnUse" x="-512" y="-396" width="2230" height="1473"><feColorMatrix type="matrix" values="1 0 0 0 0  0 1 0 0 0  0 0 1 0 0  0 0 0 1 0"/></filter></defs><mask maskUnits="userSpaceOnUse" x="-512" y="-396" width="2230" height="1473"><g filter="url(#Adobe_OpacityMaskFilter)"><path class="st2" d="M485.5 886.6L1440 333.9V0H0v618.3l465.5 268.3C471.7 890.2 479.3 890.2 485.5 886.6z"/></g></mask><g class="st3"><path class="st4" d="M1064.1 209.8L671.8-16.9V-17L15.1 362.8 15 666l262.2-151.5V317.9l394-227.6L1102 338.9 1718-17v-151L1064.1 209.8z"/><path class="st4" d="M1063.3 59L1326-92.1V-243L932-16.5 1063.3 59z"/><path class="st5" d="M539-243.6v0.1L800.9-92.4 670-16.9v0.1L1063 210l655-378v-0.1l-131-75.6L1325-92.5 1063 58.7 932.1-16.8 1325-243.6v-0.1l-131-75.6L932-168.1l-0.1-0.1L801-243.7l0 0v0l0 0 131-75.6v-0.1L801-395 539-243.6z"/><path class="st6" d="M276 58l131.6-75.9 0.4-0.2L276.5-94v0L276 58z"/><path class="st7" d="M670 245l-126 73L670 245z"/><path class="st4" d="M277-92L15 59.6V211L277 59V-92z"/><path class="st6" d="M14.7 209.8L15 210V59l-395-227v151.3L14.7 209.8zM-512 362.1L15 666V362.6L-511.7 59 -512 362.1z"/><path class="st5" d="M13.7-396l-394.3 227.9v0.3L13.7 60.2 276.4-91.7 277-92l130.9 75.7 -0.4 0.2L13.7 211.9l-0.3-0.2L-380.6-15.8 -512 60 13.8 364 670.9-16.4l0.1 0L540.2-92 13.7-396 13.7-396zM-112.5-167.9l126.2-72.9 126.2 72.9L13.7-95 -112.5-167.9 -112.5-167.9z"/><path class="st4" d="M670 850l130.8-76.1V622.1l131.2-76 -0.1-0.1V395L670 546.7V850zM932.8 697.7v151.7L801 925.3V1077l263.5-151.8V773.5L1328 621.7V470L932.8 697.7z"/><path class="st6" d="M932.1 545l131.9-76.1L932.6 393l-0.6 0.3L932.1 545 932.1 545zM801 773.3L933 849V697.7L801 622V773.3zM276 513.5v258.8L802 1076V924.1l-131.3-75.8V544.8L276 317V513.5zM410.2 539.8l134.1 77.4 -39.1 22.6 39.2-22.7v0.1l0.1 0.1 -0.1 0.1 0.2 154.7 -0.1 0 -134.1-77.2 0.1-0.1 69.3-40.2 -69.5 40.1L410.2 539.8 410.2 539.8z"/><path class="st7" d="M544 618.1L544 618.1 544 618.1 544 618.1z"/><path class="st4" d="M543 616l-134-77v154l69.5-39.8 25.5-14.7L543 616z"/><path class="st5" d="M542.8 618.1V618l-39.1 22.7 -25.4 14.8 -69.2 40.2 -0.1 0.1L542.9 773l0.1 0 -0.2-154.8L542.8 618.1zM800.8 925L932 849l-131.2-76L670 849.2 800.8 925zM669.7 389.6l-126-72.8 126-72.8 126 72.8L669.7 389.6 669.7 389.6zM276 316.6v0.3l393.7 227.6L932 392.9l0.6-0.3 130.7 75.6L800.7 620.1 932 696l394-227.9 -225.8-130.4L669.7 89 276 316.6 276 316.6z"/><path class="st4" d="M544 318l126 73V245L544 318z"/><path class="st6" d="M670 391l126-73 -126-73V391z"/></g><defs><filter filterUnits="userSpaceOnUse" width="1440" height="889.1"><feColorMatrix type="matrix" values="1 0 0 0 0  0 1 0 0 0  0 0 1 0 0  0 0 0 1 0"/></filter></defs><mask maskUnits="userSpaceOnUse" width="1440" height="889.1"><g filter="url(#Adobe_OpacityMaskFilter_1_)"><path class="st2" d="M485.5 886.6L1440 333.9V0H0v618.3l465.5 268.3C471.7 890.2 479.3 890.2 485.5 886.6z"/></g></mask><linearGradient gradientUnits="userSpaceOnUse" x1="483.7" y1="577.4" x2="484.7" y2="576.6" gradientTransform="matrix(1440 0 0 -889.1441 -696476 513349.1563)"><stop offset="0" style="stop-color:#FFF;stop-opacity:0"/><stop offset="0.5071" style="stop-color:#FFF;stop-opacity:0.5"/><stop offset="1" stop-color="#FFF"/></linearGradient><path class="st9" d="M485.5 886.5L1440 333.8V0H0v618.2l465.5 268.3C471.7 890 479.3 890 485.5 886.5L485.5 886.5z"/><path class="st10" d="M485.5 886.5L1440 333.8V0H0v618.2l465.5 268.3C471.7 890 479.3 890 485.5 886.5L485.5 886.5z"/></g><path class="st11" d="M0 720.8c0 0 74 83.3 169.4 84.8s160.2-69.9 262.8-104.9c92.8-31.6 168.7 90.8 265.9 67.7 97.2-23.1 70.6-177.7 194.8-251.8 124.2-74 194 22.6 285.8 22.6 91.8 0 115-163.4 261.4-195.3l-0.2 546.1H0.1L0 720.8z"/></svg>