<?xml version="1.0" encoding="utf-8"?>
<!-- Generator: Adobe Illustrator 23.0.1, SVG Export Plug-In . SVG Version: 6.00 Build 0)  -->
<svg version="1.1" id="Layer_1" xmlns="http://www.w3.org/2000/svg" xmlns:xlink="http://www.w3.org/1999/xlink" x="0px" y="0px"
	 viewBox="0 0 226.7 145.8" style="enable-background:new 0 0 226.7 145.8;" xml:space="preserve">
<style type="text/css">
	.st0{fill:#FFF3E2;}
	.st1{clip-path:url(#SVGID_2_);fill:#FFAB3B;}
	.st2{fill:#1E3745;}
	.st3{fill:#F7D5A0;}
	.st4{fill:#28495C;}
	.st5{fill:#001618;}
	.st6{fill:#78CEFF;}
	.st7{fill:#81D8FF;}
	.st8{fill:#AEE2FF;}
	.st9{display:none;}
	.st10{display:inline;}
	.st11{fill:#FFAB3B;}
	.st12{fill:#FFEED8;}
	.st13{fill:#121212;}
	.st14{fill:#5A9BBF;}
	.st15{display:inline;fill:#FFF3E2;}
	.st16{fill:#FF8B3B;}
	.st17{fill:#5CBCF2;}
	.st18{fill:#FF7B3B;}
	.st19{fill:#162630;}
	.st20{fill:#1E3340;}
</style>
<g>
	<ellipse class="st0" cx="92.5" cy="129.1" rx="46.2" ry="8.8"/>
	<g>
		<defs>
			<polygon id="SVGID_1_" points="58.5,97.9 74.6,80.3 110,71.8 125.8,33.4 162.3,17.7 150.4,10.4 193.2,11.7 178.2,47.9 
				171.7,34.2 141.8,49.4 127.2,93.9 82.3,102.6 58.5,132.7 			"/>
		</defs>
		<clipPath id="SVGID_2_">
			<use xlink:href="#SVGID_1_"  style="overflow:visible;"/>
		</clipPath>
		<polygon class="st1" points="58.5,97.9 74.6,80.3 110,71.8 125.8,33.4 162.3,17.7 150.4,10.4 193.2,11.7 178.2,47.9 171.7,34.2 
			141.8,49.4 127.2,93.9 82.3,102.6 58.5,132.7 		"/>
	</g>
	<g>
		<path class="st2" d="M96.5,64.6c0,0,8.8-1.4,10.1,3.1c1.3,4.5-15.2,10.8-23.2,9c-8-1.8,1.9-10.7,1.9-10.7l9.5-3.3L96.5,64.6z"/>
		<polygon class="st3" points="70.6,110.5 69.6,113.2 71.1,114.1 72.1,112.2 		"/>
		<path class="st4" d="M76.5,65.9c0,0-2.8,2.9-2.7,11.5c0.1,8.6,6.2,15,6.2,15s-5.9,6.2-9.9,18.6c0,0,0.6,1.4,2.1,2.2
			c0,0,15.5-17.9,15.2-19.9c-0.3-2-2.2-21.7,0-25.2C89.6,64.7,76.5,65.9,76.5,65.9z"/>
		<path class="st5" d="M69.6,112.9c-0.3,0.2-1.1,0.7-1.8,1.7c-0.1,0.1,0,0.2,0,0.3l6.3,4.7c0.1,0.1,0.2,0,0.3-0.1
			c0.1-0.2,0.3-0.6,0.1-1c-0.3-0.6-2.8-3.9-3.2-4.5c0,0,0,0-0.1-0.1c-0.2-0.1-0.8-0.4-1.3-0.9C69.8,112.9,69.7,112.9,69.6,112.9z"/>
		<path class="st6" d="M99.1,44.8c0,0,3.4,2.4,3.7,9.8c0.3,7.5-8.5,15.5-16.1,16.7s-10.9-5.1-10.9-5.1s5.7-17,21.5-21
			C99.1,44.8,99.1,44.8,99.1,44.8z"/>
		<path class="st6" d="M100.1,45.6c0.7,0.4,6.4,5.8,7.7,8.4c0,0-1.6,4.1-4.7,5.6c0,0-3.4-4.1-3.5-4.8c-0.1-0.7-0.7-7.5-0.5-7.7
			C99.2,46.9,100.1,45.6,100.1,45.6z"/>
		<path class="st3" d="M101.9,73.8c-0.2,0.1-4.4-5.9-5.3-11c0,0,1.3-14.5-3.1-14.7c-4.4-0.2-3.9,12.9-3.3,17.1
			c0.6,4.2,8.6,10.1,11.5,10.7c2.9,0.6,7-2.5,4.8-3.2C104.2,72.1,102.5,73.5,101.9,73.8z"/>
		<path class="st3" d="M108.8,55.5c0,0-0.3,11.3-1.3,15.1c0,0,3.7-0.1,2,1.8c-1.7,1.8-5.8,0.4-4.7-1.3c1.1-1.7-0.7-11-1.4-12.4
			c-0.8-1.5,4-4.6,4-4.6L108.8,55.5z"/>
		<g>
			<path class="st3" d="M97.8,40.1c0.2,0.4-1,3-2.1,5.5c-1.3,2.8,4.6,3,4.2,2.1c0,0,0-2.9,1-4.2C102,42.3,97.8,40.1,97.8,40.1z"/>
			<path class="st3" d="M101.1,42.9l-0.1,0.5c0,0-0.1,0.1-0.1,0.1c-0.4,0.5-0.7,1.3-0.8,2.1c-1.1-0.7-2.2-2.3-2.8-3.6
				c0.4-1,0.6-1.7,0.5-1.9C97.8,40.1,100.8,41.6,101.1,42.9z"/>
			<path class="st3" d="M106.6,32.7c0,0.8,1.3,4.4,0.8,8.9l-1.3-0.4c0,0-4.1,9.9-8.1-1.3c-4-11.2,6.1-7.8,6.1-7.8L106.6,32.7z"/>
			<path class="st4" d="M104.1,30.4c0.8,0.2,4.1-2.5,5.3-0.5c1.2,2.1,0.8,7.1-4.9,5.4c-5.7-1.8-6,6.1-6.2,5.6c0,0-2.4,0-2.2-5.3
				C96.5,30.3,99.3,29.2,104.1,30.4z"/>
			<path class="st3" d="M100.7,37.4c-0.7-0.8-1.3-1.7-2.3-0.6c-1,1.1,0.6,3.1,1.4,2.6C100.5,39,100.7,37.4,100.7,37.4z"/>
		</g>
		<path class="st7" d="M96.7,61.9c0.2-3.3,0.5-13.6-3.2-13.7c-3.7-0.1-4,9-3.6,14.5l2.3,0.7L96.7,61.9z"/>
		<path class="st8" d="M89.3,62.1c-0.2,0.6,0.2,4.7,0.5,4.8c0.3,0.2,7.4-2.1,7.6-2.4c0.2-0.3,0.4-4.5,0-4.7
			C97,59.7,89.8,61.6,89.3,62.1z"/>
		<path class="st8" d="M102.2,59.1c0,0.2,1.4,2.6,1.7,2.6s5.2-4.2,5.3-5.6c0.1-1.4-1.7-3.7-2-3.7C106.9,52.5,102.2,58.2,102.2,59.1z
			"/>
		<path class="st8" d="M94.2,46.3l2-1.7c0,0,1.2,2.5,3.5,3.5l0.2,2.9C100,50.9,97.9,51,94.2,46.3z"/>
		<path class="st8" d="M99.8,48c0,0,0.2-1.9,0.3-2.4c0,0,0.9,0.6,1.4,1.3c0,0,0.7,2.1-0.2,3.9L99.8,48z"/>
	</g>
</g>
<g id="Layer_2" class="st9">
	<g class="st10">
		<path class="st11" d="M104.8,45.2L105,31l12.9,0.1c0,0-6.6-12.7,6.3-13.2c12.9-0.5,3.3,14.1,3.3,14.1l11.5,0l-0.1,12.6
			c0,0,13.7-7.6,14,6.6c0.4,14.2-14.5,7.9-14.5,4.2l-0.5,13l-32.9,0.7l0.2-13.3c0,0,11.6,5.5,11.6-7.2
			C116.9,38,104.8,45.2,104.8,45.2z"/>
		<path class="st12" d="M109.8,35c2.6-2.6,12.5-0.8,12.5-0.8c-2.8-12.9,1.6-15.7,4.2-16.2c-0.7-0.1-1.5-0.1-2.3-0.1
			c-12.9,0.5-6.3,13.2-6.3,13.2L105,31l-0.1,14.2c0,0,1.7-1,3.8-1.7C108.3,40.7,108.2,36.6,109.8,35z"/>
		<path class="st12" d="M138.1,66.1c-24.3,1.7-27.7-5.5-28-9.1c-2.5-0.1-4.8-1.2-4.8-1.2l-0.2,13.3l32.9-0.7L138.1,66.1z"/>
		<path class="st12" d="M138.9,44.6c0,0,12-3,9.7,15.1c2.5-0.8,4.5-3.3,4.3-8.5C152.6,36.9,138.9,44.6,138.9,44.6z"/>
	</g>
	<g class="st10">
		<path class="st11" d="M81.5,69.5l14.4,0l0-13.1c0,0,12.8,6.8,13.4-6.3c0.6-13.1-14.3-3.5-14.3-3.5L95.2,35l-12.7,0
			c0,0,7.9-13.8-6.5-14.3c-14.4-0.5-8.1,14.6-4.4,14.6l-13.2,0.4l-1,33.3l13.4-0.1c0,0-5.5-11.8,7.4-11.7
			C88.9,57.4,81.5,69.5,81.5,69.5z"/>
		<path class="st12" d="M91.9,64.5c2.7-2.6,0.9-12.6,0.9-12.6c13.1,3,15.9-1.5,16.4-4.2c0.1,0.7,0.1,1.5,0.1,2.4
			c-0.6,13.1-13.4,6.3-13.4,6.3l0,13.1l-14.4,0c0,0,1-1.7,1.8-3.9C86.2,66,90.3,66.1,91.9,64.5z"/>
		<path class="st12" d="M60.7,35.6c-1.9,24.5,5.3,28.1,9,28.4c0.1,2.5,1.1,4.8,1.1,4.8L57.4,69l1-33.3L60.7,35.6z"/>
		<path class="st12" d="M82.5,35c0,0,3.1-12.1-15.2-10c0.8-2.5,3.3-4.5,8.7-4.3C90.3,21.2,82.5,35,82.5,35z"/>
	</g>
	<g class="st10">
		<ellipse class="st0" cx="43.4" cy="120.6" rx="41.2" ry="8"/>
		<g>
			<path class="st3" d="M21.9,72.1c0.1,0,1.3,1.5,1.1,2.4c-0.2,0.9-1.3-1.1-1.3-1.1s0,1.7-1.2,3.5c-1.1,1.8-3.9,0.3-3.7-1.1
				s2.3-3.8,3.1-4.6L21.9,72.1z"/>
			<path class="st3" d="M43,111.8c0,0-0.2,1.2-0.4,1.5c0,0,1.3,0.7,1.6,0.3c0.3-0.4,0.1-1.8,0.1-1.8H43z"/>
			<path class="st13" d="M40.5,115.1c-0.1-0.1,1-2.1,2-2.3c0,0,1.3,1,2.3,0.5c0,0,3.5,7.2,3.5,8.5c0,0-0.3,0.9-1.2,0.6
				C46,122.2,40.9,116.2,40.5,115.1z"/>
			<path class="st3" d="M31.6,67.4c0,0-4.6,4.8-0.7,10.3c0,0-1.1,9.5-0.2,15.3c0,0-2.7,12.6,1.5,25c0,0-0.6,2.7-0.3,4.3
				c0,0,6.8,1.3,10.3-0.1c0,0,0-0.8-1.8-1.5s-6-1.2-6.4-3.3c-0.4-2.1,0.9-19.7,2.1-24.6c1.2-4.9,5.8-19.7,5.4-24.7
				C41.2,63.1,31.6,67.4,31.6,67.4z"/>
			<path class="st2" d="M41.4,67.2c1,0.3,10.3,20.9,9.9,22.1c-0.6,2-6.9,23.3-6.9,23.3s-1.6-0.1-1.6-0.3c-0.1-0.2-3.3-16.7,3.6-21.5
				c0,0-7.8-7.2-8.7-11.4c-0.9-4.2,1.2-7.5,1.2-7.5L41.4,67.2z"/>
			<path class="st13" d="M31.8,122.5c-0.2,0-0.3-3.1,0.2-3.9c0,0,2.3,0.7,2.6-0.3c0,0,7,1.9,8,2.7c0,0,0.5,0.7-0.3,1.3
				C41.4,123,32.9,122.9,31.8,122.5z"/>
			<path class="st4" d="M31.6,116.5c0.1,0.2,1.5,0.2,2.8,0c0,0,1.1-16.4,1.9-21.8c0.8-5.4,6.3-19.4,5.5-27l-10.5-0.2
				c0,0-4.6,4.7-0.5,10.2c0,0-1.7,8.1-0.3,15.3C30.4,92.9,27.1,103.1,31.6,116.5z"/>
			<path class="st3" d="M61.4,54.3c0.6-0.3,2.9-2.7,7.6-1.9c4.7,0.7-2.8,3.8-6.9,3C58.1,54.6,61.4,54.3,61.4,54.3z"/>
			<path class="st14" d="M39.4,45c0,0,6.9,8.5,23.6,7.8c0,0,1,3.2,0,3.2c-1,0-18.9,1.1-22.9-1.8c-4-2.9,0.5-4.5,0.5-4.5L39.4,45z"/>
			<path class="st6" d="M38.8,40.5c0,1-0.6,2.5,0.7,4.5c1.3,2,6.5,7.5,6.2,9c-0.3,1.6-1.5,2.9-2.8,3.5c0,0-1.5,6.3-0.7,10.7
				c0,0-5.5,3.4-11.3-0.3c0,0,3-3.2,2.6-4.6S31.3,55,31.3,55c0.3-0.8-3.1,2.5-4.4,5.3c-0.9,1.8-3.5,8.8-4.9,12c0,0-1.4,0.2-2.1-0.9
				c0,0,1.1-8.7,2.4-12.8c1.6-4.8,7.9-11.4,12.2-13.8c0,0,2.4-0.9,2.4-1.5C37,42.9,38.8,40.5,38.8,40.5z"/>
			<path class="st3" d="M38.8,40.5c0,0-3.4-3-3.3-2.5c1.4,5.8-0.9,6.9-0.9,6.9c0,0-0.1,0-0.1,0.1c1.4,1,8.5,5.4,6,1.5v0
				c-0.4-0.6-0.8-1-1-1.4C38.2,43,38.8,41.5,38.8,40.5z"/>
			<path class="st3" d="M35.8,39.9c0.1,0.9,0.1,1.6,0,2.2c0.4,0.6,1.3,1.5,3.1,2c-0.7-1.6-0.2-2.8-0.2-3.7L35.8,39.9z"/>
			<path class="st3" d="M40.1,29.7c0,0,5,3.4,4.1,9.1l-1.7,0c0,0-0.1,8-7.9,1.9c-7.8-6-1.8-8.3-1.8-8.3s1.4-1.9,1.9-2.1
				C35,30.2,40.1,29.7,40.1,29.7z"/>
			<path class="st4" d="M42,25.5c2.1-0.6,6.8,3.8,0.3,7.8c-6.6,4-7.8,1.1-7.8,1.1s4.1,10.5-1.4,12.4c-5.5,2-4.4,4.5-6.6,6.1
				c-2.7,2-9.4,1.1-8.1-6.1c1.3-7.1,8-6.1,9.6-9.3c2.4-4.8-0.3-7.2,1.6-9.5C32,24.9,35,27.7,42,25.5z"/>
			<path class="st3" d="M36.5,36c0,0-0.5-2.4-1.8-1.5c-1.3,0.9-0.1,3.9,1.5,3.5C37.8,37.6,36.5,36,36.5,36z"/>
		</g>
	</g>
	<g class="st10">
		<ellipse class="st0" cx="183.7" cy="124.6" rx="43.3" ry="9.1"/>
		<g>
			<polygon class="st3" points="180.3,116.9 181.4,122.9 183.3,123.1 182.6,117.3 			"/>
			<polygon class="st3" points="195,118.4 197.1,123.1 198.8,123 197.5,118.2 			"/>
			<path class="st2" d="M173.7,70.3c0,0-1.9,27,7.1,50.2l2.7,0.2c0,0-1.3-35.1,4-48.7L176,68.3L173.7,70.3z"/>
			<path class="st4" d="M187,70.7c0,0,10.5,48.3,11.8,50.4c0,0-1.6,0.4-3,0c0,0-21.9-41.2-21.7-49.8S187,70.7,187,70.7z"/>
			<path class="st13" d="M196.9,123c-0.2,0.3-0.6,1.3-0.5,2.6c0,0.1,0.1,0.2,0.2,0.2l8.5,0.1c0.1,0,0.2-0.1,0.2-0.2
				c0-0.3-0.2-0.7-0.6-0.9c-0.7-0.3-4.9-1.6-5.7-1.9c0,0-0.1,0-0.1,0c-0.2,0-0.9,0.1-1.7,0C197.1,122.9,197,122.9,196.9,123z"/>
			<path class="st13" d="M183.3,122.9c0,0.1,0.7,1.2,0.5,3c0,0,0,0,0,0l-8.9-0.1c0,0,0,0,0,0c0,0,0-0.8,0.6-1.2
				c0.7-0.3,5.2-1.6,5.8-1.8C181.4,122.9,182.4,123.1,183.3,122.9C183.3,122.9,183.3,122.9,183.3,122.9z"/>
			<path class="st3" d="M177,37c0.1,1,0,5.3,0,5.3l3.6,0.3l0.5-1.4c0,0-0.2-2.7-0.3-4.2C180.6,35.5,177,37,177,37z"/>
			<path class="st3" d="M148.3,51c-0.2-0.5-1.9-3.8-4.1-4.2c-2.1-0.4-5.8,0.6-3.3,2.9c2.5,2.2,6.7,2.5,6.7,2.5L148.3,51z"/>
			<path class="st3" d="M194.6,78.9c0,2.3,0.2,7.2,2.8,7.1c2.6-0.1,1.2-5.7-1.4-8C193.3,75.8,194.6,78.9,194.6,78.9z"/>
			<path class="st6" d="M146.4,52.3c0,0.4,6.9,11.7,15.5,9.2c8.6-2.5,9.1-7.7,9.1-7.7s0.3,14.9,2.7,20c0,0,7.2,2,13.6-1.7l-0.9-15.4
				c0,0,4.7,19.2,7.8,23.2c0,0,1.9-0.5,2.5-1.2c0,0-2.6-22.7-5.2-28.5c-2.5-5.8-6.8-8.7-10.4-9.3c0,0-1.6,2.2-4,0.5
				c0,0-3.3-0.6-7.1,2.8c-3.8,3.4-6.4,10.2-11.3,11c-4.9,0.8-10.1-4.9-10.1-4.9C147.6,50.7,147,51.4,146.4,52.3z"/>
			<path class="st3" d="M177,37.3c0,0.5,0,1.2,0,2c1.8,0.3,3.1,0.5,3.9,0.2c-0.1-0.8-0.2-1.9-0.2-2.6c0,0,0-0.1,0-0.1
				c-1-0.2-2-0.2-2-0.2L177,37.3z"/>
			<path class="st4" d="M175.4,33.2c-0.6-1.3-2.5-3.5-1.2-6.7c1.3-3.2,2.1-2.5,4.2-2.1c2.1,0.4,6.3-1.2,7.3-0.1s1.6,7.3-3,8.5
				c-4.6,1.2-4.5-3.4-4.5-3.4L175.4,33.2z"/>
			<path class="st3" d="M176.8,27c-1.5,1.8-2.5,5.2-2,7.8c0.6,2.7,2.5,5.2,4.8,4.5c2.4-0.7,4.2-4.2,3.5-9.9
				C182.5,23.8,176.8,27,176.8,27z"/>
			<path class="st3" d="M183.1,32.5c0,0,0.7-0.5,1.3,0c0.6,0.5-0.8,3-1.7,2.7C181.6,34.9,183.1,32.5,183.1,32.5z"/>
			<path class="st3" d="M175.2,32.2c-0.4-0.1-0.6-0.6-1.1-0.2c-0.6,0.4-0.1,3,1.1,2.5C176.4,34.1,175.2,32.2,175.2,32.2z"/>
			<path class="st4" d="M176.4,26.1c0,0,1,5.1,7.2,4.7c6.2-0.4-3.2-5.7-3.2-5.7L176.4,26.1z"/>
			<polygon class="st8" points="174.2,41.7 177,40 179,42 178.3,44.1 			"/>
			<polygon class="st8" points="181.1,40 179,42 180.4,44.1 182.8,41.3 			"/>
		</g>
	</g>
</g>
<g class="st9">
	<ellipse class="st15" cx="81.9" cy="121.1" rx="39.9" ry="7.6"/>
	<g class="st10">
		<path class="st11" d="M133.2,66.4c-0.6-0.6-1.5-1.2-2.4-1.1c-1.9,0.1-3.7,0.3-5.5,0.6c-0.8-1.8-1.7-3.4-2.7-5
			c-0.5-0.7-1-1.5-1.5-2.2l-0.1-0.1c-0.6-0.7-1.2-1.5-1.8-2.1c1-1.6,2-3.2,2.8-4.8c0.9-1.7-0.4-3.7-1.7-4.7
			c-1.8-1.5-3.6-2.8-5.6-3.9c-1.4-0.8-3.7-1.3-4.9,0.1c-1.2,1.4-2.3,2.9-3.4,4.4c-1.8-0.7-3.6-1.3-5.4-1.7c-1.8-0.4-3.6-0.6-5.4-0.8
			c-0.4-1.8-0.9-3.7-1.4-5.5c-0.5-1.8-2.8-2.4-4.5-2.2c-2.2,0.2-4.5,0.6-6.7,1.2c-1.6,0.4-3.5,1.7-3.4,3.6c0.2,1.9,0.4,3.7,0.7,5.6
			c-1.7,0.7-3.4,1.6-4.9,2.6c-0.7,0.5-1.4,1-2.1,1.5l-0.1,0.1c-0.7,0.6-1.4,1.1-2.1,1.8c-1.6-1.1-3.2-2-4.8-3
			c-1.6-0.9-3.6,0.3-4.7,1.6c-1.4,1.8-2.7,3.6-3.8,5.6c-0.8,1.4-1.2,3.8,0.2,5c1.4,1.2,2.9,2.4,4.4,3.5c-0.7,1.8-1.2,3.6-1.6,5.4
			c-0.3,1.8-0.6,3.6-0.7,5.5c-1.8,0.4-3.6,0.8-5.4,1.3c-1.8,0.5-2.3,2.8-2.1,4.5c0.2,2.3,0.7,4.5,1.3,6.7c0.4,1.6,1.8,3.6,3.6,3.5
			c1.9-0.1,3.7-0.3,5.5-0.6c0.8,1.8,1.7,3.4,2.7,5c0.5,0.7,1,1.5,1.5,2.2l0.1,0.1c0.6,0.7,1.2,1.5,1.8,2.1c-1,1.6-2,3.2-2.8,4.8
			c-0.9,1.7,0.4,3.7,1.7,4.7c1.8,1.5,3.6,2.8,5.6,3.9c1.4,0.8,3.7,1.3,4.9-0.1c1.2-1.4,2.3-2.9,3.4-4.4c1.8,0.7,3.6,1.3,5.4,1.7
			c1.8,0.4,3.6,0.6,5.4,0.8c0.4,1.8,0.9,3.7,1.4,5.5c0.5,1.8,2.8,2.4,4.5,2.2c2.2-0.2,4.5-0.6,6.7-1.2c1.6-0.4,3.5-1.7,3.4-3.6
			c-0.2-1.9-0.4-3.7-0.7-5.6c1.7-0.7,3.4-1.6,4.9-2.6c0.7-0.5,1.4-1,2.1-1.5l0.1-0.1c0.7-0.6,1.4-1.1,2.1-1.8c1.6,1.1,3.2,2,4.8,3
			c1.6,0.9,3.6-0.3,4.7-1.6c1.4-1.8,2.7-3.6,3.8-5.6c0.8-1.4,1.2-3.8-0.2-5c-1.4-1.2-2.9-2.4-4.4-3.5c0.7-1.8,1.2-3.6,1.6-5.4
			c0.3-1.8,0.6-3.6,0.7-5.5c1.8-0.4,3.6-0.8,5.4-1.3c1.8-0.5,2.3-2.8,2.1-4.5c-0.2-2.3-0.7-4.5-1.3-6.7
			C134.2,67.9,133.8,67.1,133.2,66.4C133.1,66.4,133.2,66.5,133.2,66.4z M115.9,84.3c-1.3,5.7-4.6,10.5-9.4,13.8
			c-5,3.1-10.9,4.2-16.7,3c-5.8-1.4-10.7-4.9-14.1-9.8c-3.2-5.1-4.3-11-3.3-16.9c1.3-5.8,4.6-10.7,9.5-14c5-3.1,10.9-4.2,16.7-3
			c5.8,1.4,10.7,4.9,14.1,9.8c3.2,5.1,4.3,11,3.3,16.9C116,84.1,116,84.2,115.9,84.3C115.9,84.5,116,84.2,115.9,84.3z"/>
		<path class="st16" d="M165.5,64.7c0.2-0.5,0.4-1.1,0.1-1.7c-0.5-1.1-1.1-2.1-1.7-3.1c0.9-0.9,1.6-1.8,2.3-2.8
			c0.3-0.5,0.6-0.9,0.9-1.4l0-0.1c0.3-0.5,0.6-1,0.8-1.6c1.2,0.2,2.3,0.4,3.5,0.5c1.2,0.1,2.1-1.1,2.4-2.1c0.4-1.4,0.8-2.8,1-4.3
			c0.1-1-0.1-2.5-1.2-2.9c-1.1-0.4-2.3-0.7-3.4-1c0-1.2-0.1-2.4-0.3-3.6c-0.2-1.2-0.5-2.3-0.9-3.4c1-0.7,2-1.4,2.9-2.1
			c0.9-0.7,0.7-2.2,0.3-3.2c-0.7-1.3-1.4-2.5-2.3-3.7c-0.6-0.8-1.9-1.7-2.9-1.1c-1.1,0.5-2.1,1.1-3.2,1.8c-0.9-0.8-1.8-1.6-2.8-2.3
			c-0.5-0.3-0.9-0.6-1.4-0.9l-0.1,0c-0.5-0.3-1-0.6-1.5-0.8c0.2-1.2,0.5-2.4,0.6-3.6c0.2-1.2-1.1-2.1-2.1-2.4
			c-1.4-0.4-2.8-0.7-4.2-0.9c-1-0.1-2.5,0.2-2.9,1.3c-0.4,1.1-0.7,2.3-1,3.5c-1.2,0-2.4,0.2-3.6,0.4c-1.2,0.2-2.3,0.5-3.4,0.9
			c-0.6-1-1.3-2-2.1-2.9c-0.7-1-2.2-0.7-3.2-0.2c-1.3,0.7-2.5,1.5-3.7,2.4c-0.8,0.6-1.7,1.9-1.2,3c0.5,1.1,1.1,2.1,1.7,3.1
			c-0.9,0.9-1.6,1.8-2.3,2.8c-0.3,0.5-0.6,0.9-0.9,1.4l0,0.1c-0.3,0.5-0.6,1-0.8,1.6c-1.2-0.2-2.3-0.4-3.5-0.5
			c-1.2-0.1-2.1,1.1-2.4,2.1c-0.4,1.4-0.8,2.8-1,4.3c-0.1,1,0.1,2.5,1.2,2.9c1.1,0.4,2.3,0.7,3.4,1c0,1.2,0.1,2.4,0.3,3.6
			c0.2,1.2,0.5,2.3,0.9,3.4c-1,0.7-2,1.4-2.9,2.1c-0.9,0.7-0.7,2.2-0.3,3.2c0.7,1.3,1.4,2.5,2.3,3.7c0.6,0.8,1.9,1.7,2.9,1.1
			c1.1-0.5,2.1-1.1,3.2-1.8c0.9,0.8,1.8,1.6,2.8,2.3c0.5,0.3,0.9,0.6,1.4,0.9l0.1,0c0.5,0.3,1,0.6,1.5,0.8c-0.2,1.2-0.5,2.4-0.6,3.6
			c-0.2,1.2,1.1,2.1,2.1,2.4c1.4,0.4,2.8,0.7,4.2,0.9c1,0.1,2.5-0.2,2.9-1.3c0.4-1.1,0.7-2.3,1-3.5c1.2,0,2.4-0.2,3.6-0.4
			c1.2-0.2,2.3-0.5,3.4-0.9c0.6,1,1.3,2,2.1,2.9c0.7,1,2.2,0.7,3.2,0.2c1.3-0.7,2.5-1.5,3.7-2.4C164.8,65.7,165.2,65.3,165.5,64.7
			C165.5,64.7,165.4,64.8,165.5,64.7z M150.7,58.8c-3.7,0.6-7.4-0.2-10.5-2.3c-3.1-2.2-5.1-5.5-5.8-9.2c-0.6-3.8,0.3-7.5,2.5-10.7
			c2.3-3.1,5.5-5.2,9.3-6c3.8-0.6,7.5,0.1,10.6,2.3c3.1,2.2,5.1,5.5,5.8,9.2c0.6,3.8-0.3,7.5-2.5,10.7c-2.3,3.1-5.5,5.2-9.3,6
			C150.8,58.8,150.8,58.8,150.7,58.8C150.6,58.8,150.8,58.8,150.7,58.8z"/>
		<g>
			<g>
				<g>
					<g>
						<g>
							<polygon class="st3" points="83.5,116.2 83.8,118.8 84.5,119.6 85.3,119.1 85.4,118.7 85.5,115.4 							"/>
							<polygon class="st3" points="75.3,116 74.9,118.8 75.3,119.8 76.4,119.4 76.6,118.7 76.9,115.8 							"/>
							<path class="st3" d="M82.3,42.1c0,0,0.4,3.3,2.3,4.4l0.1,1.8l-5.4,0.9l-1.8-2.1c0,0,1.8-0.3,1-4.2S82.3,42.1,82.3,42.1z"/>
							<path class="st3" d="M82.3,42.1c0,0,0.2,1.3,0.7,2.5c-0.7,0.2-2.1,0.1-4.4-1.3c0-0.1,0-0.3-0.1-0.4
								C77.8,39,82.3,42.1,82.3,42.1z"/>
							<path class="st3" d="M81.3,29.9c0.4,0.7,3.4,3.4,5.2,7.7l-1.4,0.3c0,0,1.2,11.1-8,3c-9.3-8.1,1.7-10.2,1.7-10.2L81.3,29.9z"
								/>
							<path class="st4" d="M77.9,29.1c0.8-0.2,2.5-4.4,4.7-3.1c2.1,1.3,4.4,6.1-1.8,7.4c-6.2,1.3-2.4,8.6-2.8,8.2
								c0,0-2.2,1.2-4.6-3.7C70.8,32.9,72.8,30.4,77.9,29.1z"/>
							<path class="st3" d="M78.3,37.2c-1.1-0.3-2.1-0.9-2.4,0.6c-0.4,1.5,2.1,2.6,2.6,1.7C78.9,38.7,78.3,37.2,78.3,37.2z"/>
							<path class="st17" d="M73,46.6c0,0-12.4,7.8-11.6,12.4c0.9,4.6,15.8,4.8,15.8,4.8l-3.1-12.7L73,46.6z"/>
							<path class="st2" d="M75,116.3c0,0,0.1,0.3,2.1-0.2c0,0,4.2-22.9,4.6-25.3S81,75.1,81,75.1l-7.4-8.4c0,0,1.1,23.3,0.9,25.9
								C74.2,95,74.1,112.5,75,116.3z"/>
							<path class="st4" d="M73.6,66.6c0,0-0.2,5.3,3.2,9.1c3.4,3.7,8.6,11.9,8.3,13.1s-1.9,4.3-2.3,10.7c-0.4,6.4,0.5,17,0.5,17
								s1,0.5,2.3,0c0,0,6.5-25.4,6.2-28.5c-0.3-3.1-4.7-21.4-4.7-21.4l-10.4-1.9l-1.5,1.4L73.6,66.6z"/>
							<path class="st6" d="M78.6,45.8c0,0-4.1,0.1-5.6,0.8c-1.5,0.7-2.2,13.4,0.5,20.1c0,0,7.4,2.7,13.5,0c0,0,2.1-11.1,2.2-12
								c0.1-1-0.8-7.8-0.8-7.8l-4.7-1C83.8,45.8,80.6,46.3,78.6,45.8z"/>
							<path class="st3" d="M109.8,42.7c0,0,0.5-1,2.8-1.5c2.3-0.5,2.6,1.5,2.6,1.5l-4.9,0.8L109.8,42.7z"/>
							<path class="st6" d="M110,42c0,0,1.4,0.8,1.4,1.2c0,0.4-7.2,11.3-10,12.8c-2.9,1.5-12.1-1.4-12.1-1.4l-0.8-7.8
								c0,0,8.6,3.3,10.1,3.2C100.2,50,106.5,43.5,110,42z"/>
							<path class="st8" d="M77.2,45.8l1.6-1.2c0,0,1.9,0.8,4.5,0.4l1.4,0.9C84.8,46,82,47.1,77.2,45.8z"/>
						</g>
						<path class="st18" d="M73.5,67.2c0,0,6,3.4,13.7,0l-0.2-0.7c0,0-6.2,2.3-13.5,0L73.5,67.2z"/>
					</g>
				</g>
			</g>
			<g>
				<path class="st19" d="M74.1,118.1c0,0-0.4,1.7-0.4,2.5c0,0,2.9-0.2,3.3,0c0.3,0.2,0.6,1.3,0.6,1.3h7.9c0,0,0.2-1.3-0.9-1.6
					c-1.1-0.3-4-0.6-4.8-1.8c-0.9-1.2-1.1-1.4-1.6-1.3c-0.5,0.1-0.7,0.8-0.7,0.8S75.3,118.5,74.1,118.1z"/>
				<path class="st19" d="M73.5,120.5c0,0,2.6-0.2,3.4,0c0,0-0.1,1.1-0.2,1.4l-3.2,0C73.5,121.9,73.4,120.6,73.5,120.5z"/>
				<path class="st19" d="M81.6,119.7c0,0-1.3,0.3-2.2,0c-0.9-0.2-1.7-1-1.9-1.6c-0.2-0.6,0.6-1.6,1.3-0.7
					C79.4,118.2,80.1,119.3,81.6,119.7z"/>
			</g>
			<g>
				<path class="st20" d="M82.5,118.1c0,0-0.4,1.7-0.4,2.5c0,0,2.9-0.2,3.3,0c0.3,0.2,0.6,1.3,0.6,1.3h7.9c0,0,0.2-1.3-0.9-1.6
					c-1.1-0.3-4-0.6-4.8-1.8c-0.9-1.2-1.1-1.4-1.6-1.3c-0.5,0.1-0.7,0.8-0.7,0.8S83.7,118.5,82.5,118.1z"/>
				<path class="st20" d="M81.9,120.5c0,0,2.6-0.2,3.4,0c0,0-0.1,1.1-0.2,1.4l-3.2,0C81.9,121.9,81.7,120.6,81.9,120.5z"/>
				<path class="st20" d="M90,119.7c0,0-1.3,0.3-2.2,0c-0.9-0.2-1.7-1-1.9-1.6c-0.2-0.6,0.6-1.6,1.3-0.7S88.5,119.3,90,119.7z"/>
			</g>
		</g>
	</g>
</g>
</svg>
